<svg width="24" height="25" viewBox="0 0 24 25" fill="none" xmlns="http://www.w3.org/2000/svg">
<path d="M22.7423 1.25772C21.0652 -0.419311 18.3462 -0.419227 16.6694 1.2579L2.32924 15.5996C1.84164 16.0873 1.49892 16.7006 1.3392 17.3716L0.0244906 22.8933C-0.0478935 23.1973 0.0426227 23.5171 0.263615 23.7382C0.48462 23.9591 0.804444 24.0497 1.10848 23.9772L6.62999 22.6626C7.30103 22.5029 7.91457 22.1599 8.40231 21.6721L20.3994 9.67367C21.2133 10.4942 21.2112 11.8193 20.3932 12.6373L18.2531 14.7774C17.9016 15.1289 17.9016 15.6986 18.2531 16.0501C18.6046 16.4016 19.1744 16.4016 19.5258 16.0501L21.666 13.91C23.1869 12.3892 23.1891 9.92435 21.6722 8.40079L22.7424 7.33034C24.4192 5.65336 24.4192 2.93461 22.7423 1.25772ZM17.9422 2.53062C18.9161 1.5565 20.4954 1.55646 21.4695 2.53051C22.4434 3.50448 22.4435 5.08359 21.4696 6.05763L7.12944 20.3994C6.87726 20.6516 6.56003 20.8289 6.21307 20.9116L2.11429 21.8874L3.09026 17.7884C3.17283 17.4416 3.35002 17.1245 3.60211 16.8724L17.9422 2.53062Z" fill="white"/>
</svg>
