<svg width="164" height="42" viewBox="0 0 164 42" fill="none" xmlns="http://www.w3.org/2000/svg">
<path d="M0 20.9997C0 9.06005 9.23297 0 21.367 0C33.501 0 42.734 9.06005 42.734 20.9997C42.734 32.9394 33.5595 41.9994 21.367 41.9994C9.17451 41.9994 0 32.9394 0 20.9997ZM38.2362 20.9997C38.2362 12.4698 30.9544 5.99888 21.367 5.99888C11.7796 5.99888 4.5562 12.4698 4.5562 20.9997C4.5562 29.5296 11.776 36.0005 21.3633 36.0005C30.9507 36.0005 38.2326 29.5296 38.2326 20.9997H38.2362Z" fill="#FF6161"/>
<path d="M83.8101 0.705078V41.2919H79.4292V23.9998H54.5693V41.2919H50.1885V0.705078H54.5693V17.7648H79.4292V0.705078H83.8101Z" fill="#FF6161"/>
<path d="M124.238 35.4129V41.2955H91.0332V37.1196L116.781 6.59139H91.2707V0.705078H123.822V4.88105L98.136 35.4092H124.238V35.4129Z" fill="#FF6161"/>
<path d="M130.452 25.7645V0.705078H134.833V25.6447C134.833 31.5274 140.043 35.9975 147.025 35.9975C154.008 35.9975 159.276 31.5274 159.276 25.6447V0.705078H163.657V25.7645C163.657 34.9989 156.496 42 147.025 42C137.555 42 130.452 34.9989 130.452 25.7645Z" fill="#FF6161"/>
<path d="M158.17 25.7429V13.175C158.17 13.175 156.238 11.6119 151.828 12.6706C148.864 13.3819 145.738 14.9805 141.538 14.9805C138.175 14.9805 137.268 14.0705 135.798 13.175V25.7429C135.798 31.1244 140.511 35.2169 146.956 35.2169C153.402 35.2169 158.17 31.1281 158.17 25.7429Z" fill="url(#paint0_linear_587_8272)"/>
<defs>
<linearGradient id="paint0_linear_587_8272" x1="146.984" y1="12.3027" x2="146.984" y2="35.2169" gradientUnits="userSpaceOnUse">
<stop offset="0.205746" stop-color="#FF6161"/>
<stop offset="0.758109" stop-color="#BEF264"/>
<stop offset="1" stop-color="#8460FF"/>
</linearGradient>
</defs>
</svg>
