<svg width="24" height="24" viewBox="0 0 24 24" fill="none" xmlns="http://www.w3.org/2000/svg">
<path d="M3.96999 4.20774C4.71599 4.81374 4.99599 4.76774 6.39799 4.67374L19.613 3.88074C19.893 3.88074 19.66 3.60074 19.567 3.55474L17.371 1.96775C16.951 1.64175 16.39 1.26775 15.316 1.36075L2.52099 2.29475C2.055 2.34075 1.961 2.57475 2.147 2.76075L3.96999 4.20774ZM4.76299 7.28774V21.1917C4.76299 21.9387 5.13599 22.2187 5.97699 22.1717L20.5 21.3317C21.341 21.2857 21.435 20.7717 21.435 20.1647V6.35374C21.435 5.74774 21.202 5.42074 20.687 5.46674L5.50999 6.35374C4.94999 6.40074 4.76299 6.68174 4.76299 7.28774ZM19.1 8.03273C19.193 8.45273 19.1 8.87273 18.68 8.92073L17.98 9.06073V19.3247C17.372 19.6517 16.812 19.8387 16.345 19.8387C15.597 19.8387 15.41 19.6047 14.85 18.9057L10.273 11.7197V18.6717L11.721 18.9997C11.721 18.9997 11.721 19.8397 10.553 19.8397L7.33098 20.0257C7.23798 19.8397 7.33098 19.3727 7.65798 19.2797L8.49798 19.0467V9.85373L7.33298 9.75973C7.23898 9.33973 7.47298 8.73373 8.12598 8.68673L11.582 8.45373L16.346 15.7327V9.29273L15.131 9.15373C15.038 8.63973 15.411 8.26673 15.878 8.22073L19.1 8.03273ZM1.447 1.03475L14.757 0.0547518C16.391 -0.0852479 16.812 0.00775192 17.839 0.75475L22.088 3.74074C22.788 4.25374 23.0219 4.39374 23.0219 4.95374V21.3317C23.0219 22.3577 22.649 22.9657 21.342 23.0577L5.88399 23.9917C4.90399 24.0387 4.43599 23.8987 3.92199 23.2447L0.792998 19.1847C0.232999 18.4377 0 17.8787 0 17.2247V2.66675C0 1.82775 0.373999 1.12675 1.447 1.03475Z" fill="black"/>
</svg>
