<svg width="25" height="24" viewBox="0 0 25 24" fill="none" xmlns="http://www.w3.org/2000/svg">
<path d="M12.3194 0C10.7044 0 9.10525 0.318095 7.6132 0.936124C6.12114 1.55415 4.76543 2.46001 3.62346 3.60198C1.31715 5.90829 0.0214844 9.03631 0.0214844 12.2979C0.0214844 17.7336 3.55099 22.3453 8.43326 23.981C9.04816 24.0793 9.24493 23.6981 9.24493 23.3661C9.24493 23.0832 9.24493 22.3084 9.24493 21.2877C5.8384 22.0256 5.11282 19.6398 5.11282 19.6398C4.54712 18.2132 3.74776 17.832 3.74776 17.832C2.62864 17.0695 3.83384 17.0941 3.83384 17.0941C5.06363 17.1802 5.71542 18.3608 5.71542 18.3608C6.78534 20.2301 8.59314 19.6767 9.29412 19.3815C9.4048 18.5822 9.72455 18.0411 10.0689 17.7336C7.33875 17.4262 4.47333 16.3685 4.47333 11.683C4.47333 10.318 4.94065 9.22344 5.74002 8.35029C5.61704 8.04284 5.18661 6.76386 5.863 5.10364C5.863 5.10364 6.89602 4.77159 9.24493 6.35803C10.2165 6.08747 11.2741 5.9522 12.3194 5.9522C13.3647 5.9522 14.4224 6.08747 15.3939 6.35803C17.7428 4.77159 18.7758 5.10364 18.7758 5.10364C19.4522 6.76386 19.0218 8.04284 18.8988 8.35029C19.6982 9.22344 20.1655 10.318 20.1655 11.683C20.1655 16.3808 17.2878 17.4139 14.5453 17.7213C14.9881 18.1025 15.3939 18.8527 15.3939 19.9964V23.3661C15.3939 23.6981 15.5907 24.0916 16.2178 23.981C21.1001 22.333 24.6173 17.7336 24.6173 12.2979C24.6173 10.6829 24.2992 9.08376 23.6812 7.59171C23.0632 6.09966 22.1573 4.74395 21.0154 3.60198C19.8734 2.46001 18.5177 1.55415 17.0256 0.936124C15.5336 0.318095 13.9344 0 12.3194 0Z" fill="black"/>
</svg>
