<svg width="32" height="32" viewBox="0 0 32 32" fill="none" xmlns="http://www.w3.org/2000/svg">
<path d="M8 18.3505V5H10.2428V18.2867C10.2428 21.4207 12.9103 23.8021 16.485 23.8021C20.0597 23.8021 22.7571 21.4207 22.7571 18.2867V5H25V18.3505C25 23.2701 21.3336 27 16.485 27C11.6364 27 8 23.2701 8 18.3505Z" fill="#FF6161"/>
<path d="M22.1905 18.338V11.6424C22.1905 11.6424 21.2013 10.8097 18.9436 11.3737C17.4264 11.7527 15.8257 12.6043 13.6755 12.6043C11.9538 12.6043 11.4894 12.1195 10.7368 11.6424V18.338C10.7368 21.2051 13.1499 23.3853 16.4496 23.3853C19.7494 23.3853 22.1905 21.207 22.1905 18.338Z" fill="url(#paint0_linear_752_11783)"/>
<defs>
<linearGradient id="paint0_linear_752_11783" x1="16.4637" y1="11.1777" x2="16.4637" y2="23.3853" gradientUnits="userSpaceOnUse">
<stop offset="0.205746" stop-color="#FF6161"/>
<stop offset="0.758109" stop-color="#BEF264"/>
<stop offset="1" stop-color="#8460FF"/>
</linearGradient>
</defs>
</svg>
