<svg width="22" height="28" viewBox="0 0 22 28" fill="none" xmlns="http://www.w3.org/2000/svg">
<path d="M10.9997 0.667969C9.89567 0.667969 8.99967 1.56397 8.99967 2.66797V3.59505C5.55059 4.4841 2.99967 7.6077 2.99967 11.3346V19.3346L0.9528 20.8763H0.950195C0.760999 20.9968 0.605251 21.163 0.497369 21.3597C0.389486 21.5563 0.332955 21.777 0.333008 22.0013C0.333008 22.3549 0.473484 22.6941 0.723532 22.9441C0.973581 23.1942 1.31272 23.3346 1.66634 23.3346H10.9997H20.333C20.6866 23.3346 21.0258 23.1942 21.2758 22.9441C21.5259 22.6941 21.6663 22.3549 21.6663 22.0013C21.6664 21.777 21.6099 21.5563 21.502 21.3597C21.3941 21.163 21.2384 20.9968 21.0492 20.8763L18.9997 19.3346V11.3346C18.9997 7.6077 16.4488 4.4841 12.9997 3.59505V2.66797C12.9997 1.56397 12.1037 0.667969 10.9997 0.667969ZM8.33301 24.668C8.33301 26.1346 9.53301 27.3346 10.9997 27.3346C12.4663 27.3346 13.6663 26.1346 13.6663 24.668H8.33301Z" fill="black"/>
</svg>
