<svg width="40" height="40" viewBox="0 0 40 40" fill="none" xmlns="http://www.w3.org/2000/svg">
<g clip-path="url(#clip0_791_12850)">
<path d="M37.7905 0H2.20951C0.989233 0 0 0.989233 0 2.20951V37.7905C0 39.0108 0.989233 40 2.20951 40H37.7905C39.0108 40 40 39.0108 40 37.7905V2.20951C40 0.989233 39.0108 0 37.7905 0Z" fill="#3C5A99"/>
<path d="M27.5953 40.0006V24.5132H32.7942L33.574 18.4773H27.5953V14.625C27.5953 12.8782 28.0788 11.6876 30.5847 11.6876H33.782V6.28602C33.2309 6.21324 31.3333 6.04688 29.1238 6.04688C24.5124 6.04688 21.3619 8.85946 21.3619 14.0271V18.4773H16.1475V24.5132H21.3619V40.0006H27.5953Z" fill="white"/>
</g>
<defs>
<clipPath id="clip0_791_12850">
<rect width="40" height="40" fill="white"/>
</clipPath>
</defs>
</svg>
