<svg width="34" height="32" viewBox="0 0 34 32" fill="none" xmlns="http://www.w3.org/2000/svg">
<path d="M17.0935 0C14.9402 0 12.808 0.424127 10.8186 1.24817C8.82917 2.0722 7.02155 3.28001 5.49893 4.80264C2.42385 7.87772 0.696289 12.0484 0.696289 16.3972C0.696289 23.6448 5.40229 29.7938 11.912 31.9746C12.7319 32.1058 12.9942 31.5975 12.9942 31.1547C12.9942 30.7776 12.9942 29.7446 12.9942 28.3836C8.45218 29.3674 7.48474 26.1864 7.48474 26.1864C6.73047 24.2843 5.66465 23.776 5.66465 23.776C4.1725 22.7594 5.77943 22.7922 5.77943 22.7922C7.41915 22.9069 8.28821 24.4811 8.28821 24.4811C9.71477 26.9734 12.1252 26.2356 13.0598 25.842C13.2074 24.7762 13.6337 24.0547 14.0928 23.6448C10.4526 23.2349 6.63209 21.8247 6.63209 15.5774C6.63209 13.7573 7.25518 12.2979 8.321 11.1337C8.15703 10.7238 7.58313 9.01848 8.48497 6.80485C8.48497 6.80485 9.86234 6.36213 12.9942 8.47737C14.2896 8.11663 15.6998 7.93626 17.0935 7.93626C18.4873 7.93626 19.8974 8.11663 21.1928 8.47737C24.3247 6.36213 25.7021 6.80485 25.7021 6.80485C26.6039 9.01848 26.03 10.7238 25.866 11.1337C26.9319 12.2979 27.555 13.7573 27.555 15.5774C27.555 21.8411 23.718 23.2185 20.0614 23.6284C20.6517 24.1367 21.1928 25.137 21.1928 26.6619V31.1547C21.1928 31.5975 21.4552 32.1222 22.2914 31.9746C28.8011 29.7774 33.4907 23.6448 33.4907 16.3972C33.4907 14.2439 33.0666 12.1117 32.2426 10.1223C31.4185 8.13288 30.2107 6.32526 28.6881 4.80264C27.1655 3.28001 25.3579 2.0722 23.3685 1.24817C21.3791 0.424127 19.2468 0 17.0935 0Z" fill="black"/>
</svg>
