<svg width="40" height="40" viewBox="0 0 40 40" fill="none" xmlns="http://www.w3.org/2000/svg">
<rect x="0.5" y="0.5" width="39" height="39" rx="1.5" stroke="#D9D9D9"/>
<g clip-path="url(#clip0_563_8058)">
<path d="M30.4986 20.2444C30.4986 19.3425 30.4254 18.6844 30.267 18.002H19.9688V22.0725H26.0136C25.8918 23.084 25.2337 24.6075 23.7712 25.6311L23.7507 25.7674L27.0068 28.2899L27.2324 28.3124C29.3042 26.399 30.4986 23.5837 30.4986 20.2444Z" fill="#4285F4"/>
<path d="M19.9685 30.9691C22.93 30.9691 25.4162 29.9941 27.2322 28.3123L23.771 25.6311C22.8447 26.277 21.6016 26.7279 19.9685 26.7279C17.068 26.7279 14.6062 24.8146 13.7286 22.1699L13.6 22.1808L10.2142 24.8011L10.1699 24.9242C11.9736 28.5072 15.6786 30.9691 19.9685 30.9691Z" fill="#34A853"/>
<path d="M13.7286 22.1699C13.4971 21.4874 13.3631 20.7561 13.3631 20.0005C13.3631 19.2448 13.4971 18.5136 13.7164 17.8312L13.7103 17.6858L10.2821 15.0234L10.17 15.0768C9.42656 16.5637 9 18.2334 9 20.0005C9 21.7677 9.42656 23.4373 10.17 24.9241L13.7286 22.1699Z" fill="#FBBC05"/>
<path d="M19.9685 13.2724C22.0282 13.2724 23.4175 14.1621 24.2097 14.9055L27.3053 11.8831C25.4041 10.1159 22.93 9.03125 19.9685 9.03125C15.6786 9.03125 11.9736 11.4931 10.1699 15.0761L13.7164 17.8305C14.6062 15.1858 17.068 13.2724 19.9685 13.2724Z" fill="#EB4335"/>
</g>
<defs>
<clipPath id="clip0_563_8058">
<rect width="21.4984" height="22" fill="white" transform="translate(9 9)"/>
</clipPath>
</defs>
</svg>
