<svg width="40" height="40" viewBox="0 0 40 40" fill="none" xmlns="http://www.w3.org/2000/svg">
<g clip-path="url(#clip0_791_12860)">
<path d="M1.13 0H38.88C39.5 0 40 0.5 40 1.12V38.88C40 39.5 39.5 40 38.88 40H1.13C0.51 40 0 39.5 0 38.87V1.13C0 0.5 0.5 0 1.13 0Z" fill="#FFF200"/>
<path d="M20.4102 5.14062C11.1802 5.14062 3.7002 11.0406 3.7002 18.3306C3.7002 23.0206 6.8002 27.1306 11.4502 29.4706L9.8702 35.3506C9.8102 35.5306 9.8602 35.7306 9.9902 35.8606C10.0802 35.9506 10.2002 36.0006 10.3302 36.0006C10.4302 36.0006 10.5302 35.9606 10.6202 35.8906L17.3902 31.3206C18.3702 31.4606 19.3702 31.5406 20.4002 31.5406C29.6302 31.5406 37.1102 25.6406 37.1102 18.3406C37.1102 11.0406 29.6202 5.15063 20.4002 5.15063L20.4102 5.14062Z" fill="#381E1E"/>
<path d="M9.57023 16.2408H7.75023C7.50023 16.2408 7.28023 16.1808 7.10023 16.0708C6.92023 15.9608 6.81023 15.7908 6.77023 15.5808C6.76023 15.5308 6.75023 15.4608 6.74023 15.4008C6.74023 15.1408 6.84023 14.9208 7.03023 14.7808C7.22023 14.6308 7.46023 14.5508 7.74023 14.5508H13.3002C13.5502 14.5508 13.7602 14.6108 13.9402 14.7208C14.1202 14.8408 14.2302 15.0008 14.2802 15.2108C14.2902 15.2708 14.3002 15.3308 14.3002 15.3908C14.3002 15.6608 14.2102 15.8708 14.0202 16.0208C13.8302 16.1608 13.6002 16.2408 13.3102 16.2408H11.4902V22.5108C11.4902 22.8108 11.4002 23.0508 11.2202 23.2308C11.0502 23.4108 10.8102 23.5108 10.5202 23.5108C10.2802 23.5108 10.0702 23.4408 9.90023 23.3108C9.73023 23.1808 9.62023 23.0008 9.58023 22.7708C9.56023 22.6908 9.56024 22.6008 9.56024 22.5108V16.2408H9.57023Z" fill="#FFF200"/>
<path d="M14.7598 15.0123C14.8398 14.7923 14.9598 14.6323 15.1098 14.5423C15.2598 14.4523 15.4598 14.4023 15.6998 14.4023H16.1598C16.4098 14.4023 16.6198 14.4523 16.7898 14.5523C16.9598 14.6523 17.0898 14.8423 17.1898 15.1323L19.5098 21.8623C19.5798 22.0723 19.6298 22.2523 19.6698 22.4023C19.6898 22.5023 19.6998 22.5723 19.7098 22.6323C19.7098 22.8723 19.6198 23.0823 19.4398 23.2523C19.2598 23.4323 19.0498 23.5023 18.7998 23.5023C18.3598 23.5023 18.0698 23.3223 17.9398 22.9523L17.4398 21.4923H14.3398L13.8398 22.9523C13.7198 23.3123 13.4298 23.5023 12.9698 23.5023C12.7498 23.5023 12.5598 23.4423 12.3998 23.3223C12.2498 23.2023 12.1498 23.0423 12.1098 22.8223C12.0998 22.7623 12.0898 22.6923 12.0898 22.6123C12.0898 22.5123 12.1098 22.3923 12.1398 22.2523C12.1798 22.1123 12.2198 21.9723 12.2698 21.8423L14.7498 14.9923L14.7598 15.0123ZM15.9198 16.5723H15.8998L14.7698 20.1023H17.0198L15.9198 16.5723Z" fill="#FFF200"/>
<path d="M20.0098 15.3906C20.0098 15.0906 20.0998 14.8506 20.2698 14.6706C20.4398 14.4806 20.6798 14.3906 20.9698 14.3906C21.2098 14.3906 21.4198 14.4606 21.5898 14.5906C21.7598 14.7306 21.8598 14.9106 21.9098 15.1406C21.9298 15.2206 21.9298 15.3106 21.9298 15.3906V21.6606H25.1398C25.3998 21.6606 25.6198 21.7106 25.7898 21.8306C25.9698 21.9406 26.0798 22.1106 26.1198 22.3206C26.1298 22.3706 26.1398 22.4406 26.1498 22.5006C26.1498 22.7706 26.0598 22.9706 25.8598 23.1206C25.6698 23.2706 25.4298 23.3406 25.1498 23.3406H21.1398C20.8398 23.3406 20.5998 23.2806 20.4198 23.1606C20.2298 23.0406 20.1198 22.8406 20.0598 22.5606C20.0398 22.4506 20.0198 22.3206 20.0098 22.1706V15.3906Z" fill="#FFF200"/>
<path d="M26.3405 15.3906C26.3405 15.0906 26.4305 14.8506 26.6005 14.6706C26.7705 14.4806 27.0105 14.3906 27.3005 14.3906C27.5405 14.3906 27.7505 14.4606 27.9105 14.5906C28.0805 14.7306 28.1905 14.9106 28.2405 15.1406C28.2505 15.2206 28.2605 15.3106 28.2605 15.3906V18.3006L31.2805 14.8306C31.4205 14.6806 31.5405 14.5806 31.6505 14.5006C31.7605 14.4306 31.8905 14.3906 32.0505 14.3906C32.2605 14.3906 32.4505 14.4506 32.6305 14.5706C32.8005 14.6906 32.9105 14.8406 32.9505 15.0406C32.9505 15.0406 32.9505 15.0706 32.9605 15.1206C32.9605 15.1506 32.9605 15.1806 32.9605 15.2006C32.9605 15.3406 32.9205 15.4606 32.8705 15.5606C32.8105 15.6706 32.7405 15.7706 32.6405 15.8806L30.6605 18.0406L33.0005 21.7406L33.0705 21.8506C33.2305 22.1006 33.3205 22.2906 33.3505 22.4106C33.3505 22.4106 33.3505 22.4406 33.3605 22.4706V22.5406C33.3605 22.8806 33.2605 23.1306 33.0705 23.2806C32.8805 23.4306 32.6405 23.5006 32.3705 23.5006C32.1705 23.5006 32.0105 23.4706 31.8905 23.4006C31.7705 23.3206 31.6405 23.1906 31.5105 22.9806L29.2905 19.4106L28.2405 20.5106V22.5006C28.2405 22.8006 28.1605 23.0406 27.9805 23.2206C27.8105 23.4006 27.5705 23.5006 27.2705 23.5006C27.0305 23.5006 26.8305 23.4306 26.6505 23.3006C26.4805 23.1706 26.3705 22.9906 26.3305 22.7606C26.3205 22.6806 26.3105 22.5906 26.3205 22.5006V15.3906H26.3405Z" fill="#FFF200"/>
</g>
<defs>
<clipPath id="clip0_791_12860">
<rect width="40" height="40" fill="white"/>
</clipPath>
</defs>
</svg>
