<svg width="20" height="24" viewBox="0 0 20 24" fill="none" xmlns="http://www.w3.org/2000/svg">
<path d="M10 0.5C12.484 0.5 14.5 2.53432 14.5 5.07042C14.5 7.60653 12.484 9.64084 10 9.64084C7.51605 9.64084 5.5 7.60653 5.5 5.07042C5.5 2.53432 7.51605 0.5 10 0.5ZM10 23.5C7.49331 23.5 5.63644 23.4998 4.24893 23.4159C2.84603 23.331 2.00809 23.163 1.48901 22.8805C1.02554 22.6283 0.781039 22.2648 0.646144 21.604C0.502568 20.9008 0.500005 19.9421 0.5 18.5617C0.510984 17.8991 0.842449 17.2741 1.45928 16.6879C2.07959 16.0984 2.95647 15.5813 3.96399 15.154C5.98137 14.2983 8.40261 13.8521 10 13.8521C11.5889 13.8521 14.0102 14.2982 16.0299 15.154C17.0386 15.5814 17.9171 16.0986 18.5387 16.6882C19.1569 17.2746 19.489 17.8996 19.5 18.5617C19.5 19.9421 19.4974 20.9008 19.3539 21.604C19.219 22.2648 18.9745 22.6283 18.511 22.8805C17.9919 23.163 17.154 23.331 15.7511 23.4159C14.3636 23.4998 12.5067 23.5 10 23.5Z" fill="black" stroke="black"/>
</svg>
