<svg width="32" height="32" viewBox="0 0 32 32" fill="none" xmlns="http://www.w3.org/2000/svg">
<path d="M16 4.75C18.3426 4.75 20.25 6.66908 20.25 9.07042C20.25 11.4718 18.3426 13.3908 16 13.3908C13.6574 13.3908 11.75 11.4718 11.75 9.07042C11.75 6.66908 13.6574 4.75 16 4.75ZM16 27.25C13.49 27.25 11.6422 27.2497 10.264 27.1663C8.8628 27.0816 8.07464 26.9146 7.60851 26.661C7.22581 26.4527 7.01531 26.1624 6.89109 25.554C6.75385 24.8818 6.75001 23.954 6.75 22.5638C6.76016 21.9902 7.04606 21.4255 7.6315 20.8691C8.22225 20.3077 9.06959 19.8049 10.0616 19.3841C12.0491 18.5411 14.4372 18.1021 16 18.1021C17.5542 18.1021 19.9424 18.541 21.9324 19.3842C22.9256 19.8051 23.7746 20.308 24.3667 20.8696C24.9535 21.4263 25.2399 21.9909 25.25 22.5639C25.25 23.954 25.2462 24.8818 25.1089 25.554C24.9847 26.1624 24.7742 26.4527 24.3915 26.661C23.9254 26.9146 23.1372 27.0816 21.736 27.1663C20.3578 27.2497 18.51 27.25 16 27.25Z" stroke="black" stroke-width="1.5"/>
</svg>
