<svg width="32" height="32" viewBox="0 0 32 32" fill="none" xmlns="http://www.w3.org/2000/svg">
<path d="M14.1874 6.32131L14.7502 6.17625V5.59505V4.66797C14.7502 3.97818 15.3104 3.41797 16.0002 3.41797C16.6899 3.41797 17.2502 3.97818 17.2502 4.66797V5.59505V6.17625L17.813 6.32131C20.9401 7.12737 23.2502 9.95937 23.2502 13.3346V21.3346V21.709L23.5493 21.934L25.5988 23.4757L25.6222 23.4932L25.6468 23.5089C25.7296 23.5616 25.7977 23.6344 25.8449 23.7204C25.8921 23.8064 25.9169 23.903 25.9168 24.0011V24.0013C25.9168 24.156 25.8554 24.3044 25.746 24.4138C25.6366 24.5232 25.4882 24.5846 25.3335 24.5846H16.0002H6.66683C6.51212 24.5846 6.36375 24.5232 6.25435 24.4138C6.14496 24.3044 6.0835 24.156 6.0835 24.0013L6.0835 24.0011C6.08347 23.903 6.10821 23.8064 6.1554 23.7204C6.1821 23.6717 6.2155 23.6273 6.25446 23.5884L6.40451 23.4754L8.45138 21.9337L8.75016 21.7087V21.3346V13.3346C8.75016 9.95937 11.0602 7.12737 14.1874 6.32131ZM16.0002 28.5846C15.2133 28.5846 14.5317 28.1016 14.2378 27.418H17.7626C17.4686 28.1016 16.787 28.5846 16.0002 28.5846Z" stroke="black" stroke-width="1.5"/>
</svg>
