<svg width="40" height="40" viewBox="0 0 40 40" fill="none" xmlns="http://www.w3.org/2000/svg">
<g clip-path="url(#clip0_791_12848)">
<path d="M0.832154 0.0459873C1.46169 -0.0379508 2.10172 0.0215054 2.73475 0.00751571C14.7029 0.00751571 26.6711 0.0145105 38.6393 0.00751571C39.0065 -0.00997139 39.4017 0.0529822 39.6535 0.346766C40.1362 0.825912 39.9648 1.55338 39.9963 2.15843C39.9823 14.3854 39.9998 26.6089 39.9893 38.8324C40.0138 39.5319 39.3213 40.0915 38.6393 39.9865C26.1535 39.9865 13.6642 39.9935 1.1749 39.9865C0.548863 40.0215 -0.0352063 39.4689 0.00676277 38.8359C-0.000232072 26.2801 -0.000232072 13.7244 -0.000232072 1.16866C-0.0387037 0.651041 0.339018 0.175392 0.832154 0.0459873ZM9.03361 9.98566C9.04759 16.6552 9.0371 23.3283 9.0371 30.0014C11.5343 30.0154 14.0384 30.0119 16.5356 30.0014C16.574 26.6928 16.4901 23.3843 16.581 20.0757C17.4029 21.2194 18.1479 22.4155 18.9873 23.5487C20.3862 25.7206 21.9706 27.7735 23.3136 29.9804C25.8282 30.0469 28.3464 29.9804 30.861 30.0189C30.889 29.7041 30.9135 29.3928 30.9135 29.0781C30.875 22.7093 30.9449 16.344 30.8785 9.97516C28.3883 9.95418 25.9017 9.97866 23.415 9.96467C23.3975 13.2907 23.436 16.6203 23.394 19.9428C21.0822 16.6552 18.8963 13.2697 16.5321 10.0206C14.0384 9.90871 11.5308 9.98566 9.03361 9.98216V9.98566Z" fill="#3DAF36"/>
</g>
<defs>
<clipPath id="clip0_791_12848">
<rect width="40" height="40" fill="white"/>
</clipPath>
</defs>
</svg>
