<svg width="31" height="32" viewBox="0 0 31 32" fill="none" xmlns="http://www.w3.org/2000/svg">
<path d="M5.29332 5.61032C6.28799 6.41832 6.66132 6.35699 8.53065 6.23166L26.1506 5.17432C26.5239 5.17432 26.2133 4.80099 26.0893 4.73966L23.1613 2.62366C22.6013 2.189 21.8533 1.69033 20.4213 1.81433L3.36133 3.05966C2.73999 3.121 2.61466 3.433 2.86266 3.68099L5.29332 5.61032ZM6.35065 9.71698V28.2556C6.35065 29.2516 6.84799 29.6249 7.96932 29.5623L27.3333 28.4423C28.4546 28.3809 28.5799 27.6956 28.5799 26.8863V8.47165C28.5799 7.66365 28.2693 7.22765 27.5826 7.28899L7.34665 8.47165C6.59999 8.53432 6.35065 8.90898 6.35065 9.71698ZM25.4666 10.7103C25.5906 11.2703 25.4666 11.8303 24.9066 11.8943L23.9733 12.081V25.7663C23.1626 26.2023 22.4159 26.4516 21.7933 26.4516C20.796 26.4516 20.5466 26.1396 19.8 25.2076L13.6973 15.6263V24.8956L15.628 25.3329C15.628 25.3329 15.628 26.4529 14.0706 26.4529L9.77465 26.7009C9.65065 26.4529 9.77465 25.8303 10.2106 25.7063L11.3306 25.3956V13.1383L9.77731 13.013C9.65198 12.453 9.96398 11.645 10.8346 11.5823L15.4426 11.2716L21.7946 20.977V12.3903L20.1746 12.205C20.0506 11.5196 20.548 11.0223 21.1706 10.961L25.4666 10.7103ZM1.92933 1.37967L19.676 0.0730024C21.8546 -0.113664 22.4159 0.0103359 23.7853 1.00633L29.4506 4.98766C30.3839 5.67166 30.6959 5.85832 30.6959 6.60499V28.4423C30.6959 29.8103 30.1986 30.6209 28.4559 30.7436L7.84532 31.9889C6.53865 32.0516 5.91465 31.8649 5.22932 30.9929L1.05733 25.5796C0.310666 24.5836 0 23.8383 0 22.9663V3.55566C0 2.437 0.498666 1.50233 1.92933 1.37967Z" fill="black"/>
</svg>
