<svg width="32" height="32" viewBox="0 0 32 32" fill="none" xmlns="http://www.w3.org/2000/svg">
<path d="M15.9997 2.66602C14.8957 2.66602 13.9997 3.56202 13.9997 4.66602V5.5931C10.5506 6.48214 7.99967 9.60575 7.99967 13.3327V21.3327L5.9528 22.8743H5.9502C5.761 22.9948 5.60525 23.1611 5.49737 23.3577C5.38949 23.5544 5.33295 23.7751 5.33301 23.9993C5.33301 24.353 5.47348 24.6921 5.72353 24.9422C5.97358 25.1922 6.31272 25.3327 6.66634 25.3327H15.9997H25.333C25.6866 25.3327 26.0258 25.1922 26.2758 24.9422C26.5259 24.6921 26.6663 24.353 26.6663 23.9993C26.6664 23.7751 26.6099 23.5544 26.502 23.3577C26.3941 23.1611 26.2384 22.9948 26.0492 22.8743L23.9997 21.3327V13.3327C23.9997 9.60575 21.4488 6.48214 17.9997 5.5931V4.66602C17.9997 3.56202 17.1037 2.66602 15.9997 2.66602ZM13.333 26.666C13.333 28.1327 14.533 29.3327 15.9997 29.3327C17.4663 29.3327 18.6663 28.1327 18.6663 26.666H13.333Z" fill="black"/>
</svg>
